<svg xmlns="http://www.w3.org/2000/svg" viewBox="0 0 213.62 16.14"><title>coming-soon</title><g id="Layer_2" data-name="Layer 2"><g id="Content"><g id="Coming_Soon" data-name="Coming Soon"><g id="Logo"><path d="M11.61,15.34a8.28,8.28,0,0,1-3.56.8A7.91,7.91,0,0,1,0,8.07,7.91,7.91,0,0,1,8,0a8.28,8.28,0,0,1,3.56.8V4.55A5.42,5.42,0,0,0,8,3.27,4.71,4.71,0,0,0,3.36,8.07,4.68,4.68,0,0,0,8,12.88a5.43,5.43,0,0,0,3.56-1.27Z"/><path d="M26.93,0a7.91,7.91,0,0,1,8,8.07,7.91,7.91,0,0,1-8,8.07,7.91,7.91,0,0,1-8-8.07A7.91,7.91,0,0,1,26.93,0Zm0,12.88A4.69,4.69,0,0,0,31.6,8.07a4.68,4.68,0,1,0-9.36,0A4.69,4.69,0,0,0,26.93,12.88Z"/><path d="M50.12,15.89,46.48,6.14v9.75H43.22V.25h4l4.35,11.47L55.89.25h4V15.89H56.6V6.14L53,15.89Z"/><path d="M69.07.25h3.27V15.89H69.07Z"/><path d="M84.89,6.85v9H81.63V2.21L80.55.48V.25h3.86l6.85,10V.25h3.27V15.89H91.26Z"/><path d="M115.09,4.28a9.11,9.11,0,0,0-4.23-1,4.63,4.63,0,0,0-4.74,4.81,4.59,4.59,0,0,0,4.53,4.81c2.51,0,4-1.72,4-3.43,0-.09,0-.25,0-.34h-4v-3H118a13.24,13.24,0,0,1,.21,2.28c0,4.12-2.62,7.73-7.63,7.73a7.74,7.74,0,0,1-7.79-8.07A7.88,7.88,0,0,1,110.86,0a11.16,11.16,0,0,1,4.23.74Z"/><path d="M144.85,4.19a6.44,6.44,0,0,0-3.38-1.13c-1.31,0-1.93.6-1.93,1.4,0,.51.41,1,1.17,1.43l2.07,1.24c2,1.22,2.83,2.58,2.83,4.32,0,2.46-1.63,4.69-5.27,4.69a10.57,10.57,0,0,1-4-.8V11.73a6.73,6.73,0,0,0,3.82,1.36c1.24,0,1.93-.6,1.93-1.45,0-.53-.37-1-1.24-1.52l-2.14-1.27c-2.07-1.2-2.71-2.53-2.71-4.3,0-2.18,1.4-4.55,5.45-4.55a8.43,8.43,0,0,1,3.36.71Z"/><path d="M161,0a7.91,7.91,0,0,1,8,8.07,8,8,0,1,1-16.1,0A7.91,7.91,0,0,1,161,0Zm0,12.88a4.69,4.69,0,0,0,4.67-4.81,4.68,4.68,0,1,0-9.36,0A4.69,4.69,0,0,0,161,12.88Z"/><path d="M184.34,0a7.91,7.91,0,0,1,8,8.07,8,8,0,1,1-16.1,0A7.91,7.91,0,0,1,184.34,0Zm0,12.88A4.69,4.69,0,0,0,189,8.07a4.68,4.68,0,1,0-9.36,0A4.69,4.69,0,0,0,184.34,12.88Z"/><path d="M204,6.85v9h-3.27V2.21L199.64.48V.25h3.86l6.85,10V.25h3.27V15.89h-3.27Z"/></g></g></g></g></svg>