<svg xmlns="http://www.w3.org/2000/svg" viewBox="0 0 495.55 149"><defs><style>.cls-1{fill:#fff;}.cls-2{fill:#ababab;}</style></defs><title>logo</title><g id="Layer_2" data-name="Layer 2"><g id="Content"><g id="Coming_Soon" data-name="Coming Soon"><g id="Logo"><rect class="cls-1" x="0.5" y="0.5" width="494.55" height="148"/><path d="M494.55,1V148H1V1H494.55m1-1H0V149H495.55V0Z"/><path d="M56.45,75.43V44.35c0-6-.72-7-5.7-7V36.13h16.2v1.26c-5,0-5.7,1-5.7,7V74.77c0,8.58-5.82,10.74-10.5,10.74-3.54,0-8.82-2-8.82-5.7a2.07,2.07,0,0,1,4.14,0c0,1.8,1.56,3.9,4.68,3.9C54.29,83.71,56.45,81.19,56.45,75.43Z"/><path d="M80.51,66.31c-1.5,3.54-1.5,4.56,3.24,4.56v1.26H72.41V70.87c3.66,0,4.2-.72,6.18-5.22l8.82-20.52h.84l8.82,20.52c2,4.5,2.7,5.22,5.88,5.22v1.26H89.51V70.87c4.32,0,4.74-1,3.24-4.56l-1.2-2.76H81.71Zm6.12-14.16-4,9.18h7.92Z"/><path d="M115.79,63.91c0,6,.72,7,4.74,7v1.2h-11.7v-1.2c4,0,4.74-1,4.74-7v-9.6c0-6-.72-7-4.74-7v-1.2h9l8.94,20,8.88-20H144v1.2c-4,0-4.8,1-4.8,7v9.6c0,6,.78,7,4.8,7v1.2H130.31v-1.2c4,0,4.74-1,4.74-7V52.69L126,73.15h-.84l-9.36-21.24Z"/><path d="M173.93,66.07l.3-1.2h1.2l-.48,7.26H152.51v-1.2c4,0,4.74-1,4.74-7v-9.6c0-6-.72-7-4.74-7v-1.2h21l.48,7.2h-1.26l-.3-1.2c-.66-2.76-1.44-3.84-6.9-3.84h-4v8.94h.36c6,0,6.48-.72,6.48-4.74h1.2v11.7h-1.2c0-4-.48-4.74-6.48-4.74h-.36V63c0,6,.72,7,4.74,7H167C172.43,69.91,173.21,68.89,173.93,66.07Z"/><path d="M194.15,73.15a12.46,12.46,0,0,1-6.72-2.22,4.78,4.78,0,0,0-1.14,2.22h-1.08V62.83h1.2c.48,5.1,3.72,8,8.22,8,2.58,0,4.62-1.44,4.62-4,0-2.1-1.68-3.72-4.92-5.34l-4.08-2.1c-2.88-1.5-4.92-4-4.92-7.32,0-3.78,3.12-6.84,7.5-6.84a9.68,9.68,0,0,1,5.64,1.8,3.36,3.36,0,0,0,1-1.86h1.14V55.27h-1.2c-.36-3.6-2-7.86-6.3-7.86-2.34,0-4.32,1.26-4.32,3.48s1.56,3.24,5.22,5.16l4,2.1c3.42,1.74,4.74,4.44,4.74,6.78C202.73,69.85,198.83,73.15,194.15,73.15Z"/><path d="M226.43,73.15c-8,0-14.64-6.3-14.64-14s6.6-14,14.64-14,14.64,6.36,14.64,14S234.47,73.15,226.43,73.15Zm0-25.74c-7.14,0-9.72,6.54-9.72,11.7s2.58,11.7,9.72,11.7,9.72-6.48,9.72-11.7S233.51,47.41,226.43,47.41Z"/><path d="M249.95,47.35v-1.2h7.38l16,19V54.31c0-6-.72-7-4.74-7v-1.2h11.7v1.2c-4,0-4.74,1-4.74,7V73.09h-1.14L256.91,52.15V63.91c0,6,.72,7,4.74,7v1.2h-11.7v-1.2c4,0,4.74-1,4.74-7v-9.6C254.69,48.31,254,47.35,249.95,47.35Z"/><path d="M342.7,58.45v-1.2h15.72v1.2c-5,0-5.7,1-5.7,7V70c-6.66,0-9.36,3.12-15.6,3.12-10.14,0-18.42-8.58-18.42-19s8.28-19,18.42-19a15.31,15.31,0,0,1,11.16,5.1,6.17,6.17,0,0,0,2-3.42h1.2V50h-1.2c-1.62-7.8-6.3-12.54-13-12.54-9.6,0-13.08,9.24-13.08,16.68s3.12,16.44,14.22,16.44c5.22,0,9.9-2.82,9.9-8.22C348.34,59.77,346.84,58.45,342.7,58.45Z"/><path d="M382.18,65.35c2.4,2.82,5.16,5.16,8,5.58v1.2h-7.68L374.39,61h-1.68v2.94c0,6,.72,7,4.74,7v1.2H363.71v-1.2c4,0,4.74-1,4.74-7v-9.6c0-6-.72-7-4.74-7v-1.2h12.42c6.18,0,9.6,3.18,9.6,7.44,0,3.66-2.76,6.66-7.26,7.26Zm-6.06-17h-3.42V58.75h3.42c3.36,0,4.92-2.34,4.92-5.16S379.48,48.31,376.13,48.31Z"/><path d="M417.22,66.07l.3-1.2h1.2l-.48,7.26H395.8v-1.2c4,0,4.74-1,4.74-7v-9.6c0-6-.72-7-4.74-7v-1.2h21l.48,7.2H416l-.3-1.2c-.66-2.76-1.44-3.84-6.9-3.84h-4v8.94h.36c6,0,6.48-.72,6.48-4.74h1.2v11.7h-1.2c0-4-.48-4.74-6.48-4.74h-.36V63c0,6,.72,7,4.74,7h.72C415.72,69.91,416.5,68.89,417.22,66.07Z"/><path d="M440.8,63.91c0,6,.72,7,4.74,7v1.2H431.8v-1.2c4,0,4.74-1,4.74-7V61.45l-5.94-8.82c-2.82-4.14-3.9-5.28-7.08-5.28v-1.2H436.9v1.2c-3.78,0-4.14,1-1.74,4.56l4.62,6.9,4.68-6.9c2.46-3.66,2.34-4.56-1.74-4.56v-1.2h11.34v1.2c-3.3,0-4.74,1.38-7.38,5.28l-5.88,8.76Z"/><path d="M164.65,112.39V96.76h8.16V98H166v5.91h6.37v1.24H166v6h6.83v1.24Z"/><path d="M189.16,99.08a5.29,5.29,0,0,0-3.43-1.26c-1.88,0-3.13,1-3.13,2.55a2.78,2.78,0,0,0,1.56,2.39l3,2c1.91,1.2,2.58,2.28,2.58,3.86,0,2.12-1.66,4-4.78,4a7.46,7.46,0,0,1-3.79-1v-1.66a5.74,5.74,0,0,0,3.77,1.4c2.23,0,3.38-1.31,3.38-2.71,0-1-.62-1.86-1.91-2.69l-3-1.93c-1.66-1-2.28-2.14-2.28-3.59,0-1.91,1.33-3.89,4.62-3.89a6.13,6.13,0,0,1,3.36.94Z"/><path d="M205.82,99.08a5.29,5.29,0,0,0-3.43-1.26c-1.88,0-3.13,1-3.13,2.55a2.78,2.78,0,0,0,1.56,2.39l3,2c1.91,1.2,2.58,2.28,2.58,3.86,0,2.12-1.66,4-4.78,4a7.46,7.46,0,0,1-3.79-1v-1.66a5.74,5.74,0,0,0,3.77,1.4c2.23,0,3.38-1.31,3.38-2.71,0-1-.62-1.86-1.91-2.69l-3-1.93c-1.66-1-2.28-2.14-2.28-3.59,0-1.91,1.33-3.89,4.62-3.89a6.13,6.13,0,0,1,3.36.94Z"/><path d="M215.41,112.39V96.76h8.16V98h-6.83v5.91h6.37v1.24h-6.37v6h6.83v1.24Z"/><path d="M234.5,100.09v12.3h-1.33v-14l-1.06-1.54v-.14h1.66l10,13.38V96.76h1.33v15.64h-1.33Z"/><path d="M257.82,98h-4.37V96.76h10V98h-4.32v14.4h-1.33Z"/><path d="M271.8,96.76h1.33v15.64H271.8Z"/><path d="M291.51,107.5h-6.69l-1.82,4.9h-1.5l5.93-15.64h1.5l5.93,15.64h-1.49Zm-6.25-1.26h5.82l-2.9-7.73Z"/><path d="M303.22,112.39V96.76h1.33v14.4h6.83v1.24Z"/><path d="M326.77,99.08a5.29,5.29,0,0,0-3.43-1.26c-1.88,0-3.13,1-3.13,2.55a2.78,2.78,0,0,0,1.56,2.39l3,2c1.91,1.2,2.58,2.28,2.58,3.86,0,2.12-1.66,4-4.78,4a7.46,7.46,0,0,1-3.79-1v-1.66a5.74,5.74,0,0,0,3.77,1.4c2.23,0,3.38-1.31,3.38-2.71,0-1-.62-1.86-1.91-2.69l-3-1.93c-1.66-1-2.28-2.14-2.28-3.59,0-1.91,1.33-3.89,4.62-3.89a6.13,6.13,0,0,1,3.36.94Z"/><circle class="cls-2" cx="298.27" cy="59" r="3"/></g></g></g></g></svg>